<?xml version="1.0" encoding="UTF-8" standalone="no"?>
<!-- Created with Inkscape (http://www.inkscape.org/) -->

<svg
   width="210mm"
   height="297mm"
   viewBox="0 0 210 297"
   version="1.1"
   id="svg5"
   inkscape:version="1.2.2 (732a01da63, 2022-12-09)"
   sodipodi:docname="logo_web.svg"
   xmlns:inkscape="http://www.inkscape.org/namespaces/inkscape"
   xmlns:sodipodi="http://sodipodi.sourceforge.net/DTD/sodipodi-0.dtd"
   xmlns="http://www.w3.org/2000/svg"
   xmlns:svg="http://www.w3.org/2000/svg">
  <sodipodi:namedview
     id="namedview7"
     pagecolor="#ffffff"
     bordercolor="#000000"
     borderopacity="0"
     inkscape:showpageshadow="2"
     inkscape:pageopacity="0.0"
     inkscape:pagecheckerboard="0"
     inkscape:deskcolor="#ffffff"
     inkscape:document-units="mm"
     showgrid="false"
     inkscape:zoom="1.5108867"
     inkscape:cx="-25.812658"
     inkscape:cy="575.82082"
     inkscape:window-width="3072"
     inkscape:window-height="1694"
     inkscape:window-x="2293"
     inkscape:window-y="-11"
     inkscape:window-maximized="1"
     inkscape:current-layer="g831" />
  <defs
     id="defs2">
    <clipPath
       clipPathUnits="userSpaceOnUse"
       id="clipPath820">
      <path
         style="fill:#000000;stroke-width:1.9;stroke-linejoin:bevel"
         d="m 229.22936,155.67983 17.33668,-2.62677 29.77003,21.88974 29.94517,16.11085 22.23998,-13.48408 14.18455,-15.41037 28.3691,-10.6822 c 0,0 15.76062,14.53479 16.98646,18.91274 1.22582,4.37795 9.8066,39.40153 8.23053,51.30955 -1.57605,11.90802 -5.60377,28.01887 -10.85731,33.44752 -5.25354,5.42866 -13.48407,11.20756 -14.18455,11.20756 -0.70046,0 -7.53007,-19.78833 -7.53007,-19.78833 l -31.69634,-41.15272 c 0,0 -17.16157,-4.72818 -19.26297,-4.37794 -2.10142,0.35023 -8.05542,1.57606 -12.43337,2.80188 -4.37796,1.22583 -30.47053,5.07842 -30.47053,5.07842 0,0 -4.0277,10.50708 -5.60378,13.13385 -1.57606,2.62677 -9.28125,13.48407 -14.00943,17.51179 -4.72818,4.02771 -8.23054,8.7559 -9.28125,9.63148 -1.05071,0.87559 -8.58078,5.25354 -10.33196,4.90331 -1.75118,-0.35024 -18.5625,-20.13857 -19.6132,-25.56722 -1.05071,-5.42866 -3.15213,-43.25413 -2.10142,-46.40625 1.05071,-3.15212 20.31368,-26.44281 20.31368,-26.44281 z"
         id="path822" />
    </clipPath>
  </defs>
  <g
     inkscape:label="Layer 1"
     inkscape:groupmode="layer"
     id="layer1"
     style="display:inline" />
  <g
     inkscape:groupmode="layer"
     id="layer2"
     inkscape:label="Layer 2"
     style="display:inline" />
  <g
     inkscape:groupmode="layer"
     id="layer4"
     inkscape:label="Layer 4"
     style="display:inline" />
  <g
     inkscape:groupmode="layer"
     id="layer3"
     inkscape:label="Layer 3"
     style="display:inline" />
  <g
     inkscape:groupmode="layer"
     id="layer5"
     inkscape:label="Layer 5"
     style="display:inline">
    <g
       id="g831"
       transform="translate(-218.92626,-21.298257)">
      <path
         style="display:inline;fill:#651c33;stroke-width:0.264583"
         d="m 267.78261,135.95431 c -11.2059,-2.97438 -13.45771,-18.00499 -3.63844,-24.28629 7.99093,-5.11174 18.67311,-0.20563 20.075,9.22003 1.42448,9.57749 -7.22959,17.51007 -16.43656,15.06626 z m 9.72051,-13.31763 c 3.41615,-2.47465 1.74081,-7.68846 -2.47149,-7.69155 -2.40017,-0.002 -4.17579,1.7979 -4.17579,4.23234 0,3.50162 3.83426,5.49694 6.64728,3.45921 z m 53.72171,13.32783 c -11.97319,-2.9027 -13.50115,-19.79275 -2.27294,-25.125 7.39259,-3.51072 16.27676,0.59927 18.3293,8.47951 2.62302,10.07045 -6.05755,19.06953 -16.05636,16.64549 z m 8.52713,-13.14902 c 3.66413,-2.49378 2.12584,-7.87135 -2.25165,-7.87135 -3.58077,0 -5.44439,3.87788 -3.30649,6.88028 1.14019,1.60126 3.93054,2.09881 5.55814,0.99107 z"
         id="path692" />
      <path
         style="display:inline;fill:#fd4c3b;stroke-width:0.264583"
         d="m 263.57774,273.32234 c -2.80412,-1.40559 -3.56327,-4.07119 -2.42975,-8.53149 1.36151,-5.35741 5.60503,-10.71216 10.78429,-11.8069 2.04136,-0.43148 6.78313,-0.17118 8.46462,0.32301 4.35509,1.28 8.59542,4.55179 10.50943,8.53048 1.18472,2.46272 1.77475,6.10172 1.57859,7.84212 -0.16392,1.45428 -1.09658,2.69264 -2.58114,3.42723 -1.17771,0.58272 -1.32269,0.58925 -13.36146,0.60126 -10.32105,0.0103 -12.29147,-0.0483 -12.96458,-0.38571 z m 52.96711,0.15199 c -1.33581,-0.45152 -1.83008,-1.22003 -2.51411,-2.47542 -0.14994,-0.29636 -0.67264,-1.51849 -0.62647,-2.82286 0.13827,-3.90686 1.60213,-7.70414 4.51486,-10.6516 3.19612,-3.23421 6.68797,-4.62073 11.14898,-4.80191 2.52832,-0.10269 4.1516,0.24707 6.12635,0.86279 2.65985,0.82931 4.74502,2.71901 6.23215,4.53085 2.50984,2.75108 3.62498,6.196 3.90485,8.9458 0.29454,2.92931 -0.73362,5.30276 -2.64332,6.10193 -0.92558,0.38732 -2.55181,0.45315 -12.96458,0.52478 -7.25371,0.0499 -12.93692,-0.0605 -13.17871,-0.21436 z M 300.6054,246.30952 c -7.32258,-3.54808 -15.21579,-8.81781 -21.05374,-14.82536 -4.74893,-4.88687 -8.09791,-9.5249 -10.93528,-15.19936 -0.99492,-1.98973 -2.35074,-5.99779 -2.34257,-6.37546 0.003,-0.15626 -0.0755,-1.40568 0.73286,-3.07917 3.33241,-6.89917 4.02644,-9.90539 4.89473,-19.63261 -0.002,-6.05274 -0.16789,-9.67834 -2.3988,-13.75924 -1.21058,-2.21442 -3.13863,-4.74692 -4.20507,-5.52333 -0.0458,-1.00039 0.0449,-1.07328 0.9732,-0.65609 4.99016,1.25422 9.48522,2.01586 13.34235,2.68836 8.83216,1.53993 13.11562,2.98947 16.63974,4.76635 1.74225,0.87845 4.68337,2.99105 6.21353,4.11016 l 0.71392,0.52213 1.34179,-1.17227 c 4.12844,-3.60685 10.32478,-6.03074 18.35884,-7.45536 6.00331,-0.13705 19.09847,-3.64918 18.2202,-3.37558 l -1.90952,2.04628 c -2.03336,2.179 -3.90349,6.11902 -4.85719,9.4123 -0.69553,2.40176 -1.00141,9.54638 -0.55176,12.88758 0.68862,5.11681 2.79559,11.94658 5.1025,16.53977 0.94321,1.87801 0.94345,2.26618 0.003,4.57161 -3.45232,7.75939 -9.88591,17.03996 -18.29253,23.79647 -5.75423,4.62475 -15.74125,10.73166 -17.55018,10.73166 -0.18545,0 -1.28338,-0.45847 -2.43985,-1.01884 z m 39.61098,-35.88826 c 0.10328,-0.89201 0.33647,0.34703 0,0 z m -38.08882,-58.48688 c -2.5835,-0.99136 -6.301,-8.32263 -7.54336,-13.34977 -0.87956,-3.55913 -0.89142,-5.60363 -0.14412,-7.78792 0.9137,-2.67062 1.68935,-4.26607 3.23828,-5.49043 2.43824,-1.92732 6.10449,-2.03099 8.73457,-0.75779 1.79209,0.86754 3.63029,0.96523 4.80993,4.76499 1.12124,4.1435 0.96394,3.24154 0.98133,4.77323 0.0261,4.44118 -2.39664,10.11721 -5.77167,14.80472 -1.25768,1.74676 -2.76809,3.19147 -3.33087,3.18596 3.8844,1.26798 0.73263,0.51193 -0.97409,-0.14299 z"
         id="path351"
         sodipodi:nodetypes="sssssssssccssssccssccsssscsccssscsccsssscsscccccccssccscc" />
      <path
         style="display:inline;fill:#e33c3e;stroke-width:0.264583"
         d="m 295.3129,269.96857 c -3.2956,-0.27157 -3.44282,-0.35198 -3.44916,-1.88381 -0.0602,-14.53867 -19.64851,-20.28873 -28.20391,-8.27908 -0.97922,1.37456 -8.19876,-4.79649 -15.86023,-12.22856 -2.92427,-2.83673 -5.48457,-3.51997 -5.82985,-2.96127 -1.48157,2.39723 -4.61565,2.31071 -7.04376,-0.19447 -21.00107,-21.66749 -19.19766,-70.19733 3.25309,-87.54078 2.35152,-1.81657 2.43888,-2.07167 1.13747,-3.32154 -10.61131,-10.19112 -12.84787,-34.20701 -4.74191,-50.91804 2.29865,-4.738829 7.61462,-12.143796 9.40634,-13.102691 0.84311,-0.451221 0.62085,-0.729634 -1.39145,-1.743012 -9.86024,-4.965541 -15.66971,-13.57799 -16.59496,-24.601799 -0.69285,-8.254801 1.54481,-9.633217 7.50423,-4.622665 7.48938,6.296914 16.27682,10.51116 30.58818,14.669376 3.27892,0.952701 6.76493,2.034526 7.74669,2.404059 1.78501,0.671881 1.78501,0.671881 3.16645,-0.02833 3.42424,-1.735643 10.20019,-3.882107 15.27207,-4.83784 13.61052,-2.564731 26.72561,-1.132446 38.74635,4.231452 2.90623,1.296813 2.90623,1.296813 6.48775,0.126486 1.96984,-0.643678 4.95074,-1.545645 6.62423,-2.004372 7.74176,-2.122112 13.14366,-4.147347 19.02429,-7.132411 5.04438,-2.560581 6.9368,-3.861789 13.80792,-9.494159 2.60629,-2.136418 5.26974,-0.184068 5.26623,3.86022 -0.0102,11.706378 -6.63021,22.411121 -16.99792,27.486022 -1.89756,0.928838 -1.9151,0.803508 0.46679,3.33547 15.39539,16.365394 17.03556,45.924404 3.43765,61.952854 -1.75465,2.06829 -1.75352,2.05631 -0.28953,3.06356 19.51462,13.42641 25.07903,55.6675 10.51042,79.78777 -5.96006,9.86766 -9.14978,12.11292 -12.71057,8.94705 -1.16493,-1.03574 -1.16493,-1.03574 -4.63021,2.42345 -4.70105,4.69281 -8.17473,7.43839 -15.08003,11.91913 -2.22332,1.4427 -2.07328,1.44185 -3.05338,0.0172 -8.30365,-12.06894 -26.8929,-5.71989 -28.12237,9.60504 -0.0678,0.84545 -0.13323,0.9013 -1.13033,0.96512 -3.82152,0.24466 -14.79395,0.30832 -17.31658,0.10046 z m 10.01072,-24.06185 c 13.0707,-6.18342 25.47946,-17.81699 31.19784,-29.2488 3.01462,-6.02664 3.09256,-6.44404 1.74047,-9.32029 -6.84898,-14.5695 -6.6826,-28.84734 0.43494,-37.32428 0.87186,-1.03838 1.47588,-1.88796 1.34226,-1.88796 -0.13362,0 -1.47389,0.28762 -2.97838,0.63916 -3.19675,0.74695 -7.80071,1.65511 -14.17471,2.79603 -8.38172,1.50029 -13.89754,3.64533 -17.80054,6.92243 -1.29387,1.08638 -2.03797,1.54597 -2.24721,1.38797 -0.17205,-0.12992 -1.31033,-0.99233 -2.52952,-1.91648 -5.08143,-3.85173 -8.96663,-5.16161 -22.472,-7.57631 -3.10988,-0.55603 -13.64997,-6.14011 -12.35729,-2.66666 0.14672,0.39425 -0.28563,0.025 0.34407,0.59647 8.06488,7.32018 8.81106,23.90317 1.73044,38.45714 -1.35672,2.78872 -1.35672,2.78872 -0.46824,4.8948 6.01345,14.25437 16.76834,25.49878 32.04998,33.50875 3.36376,1.76313 3.8887,1.82573 6.18789,0.73803 z m -1.52702,-94.73107 c 2.89917,-1.55159 7.24263,-11.14624 7.56839,-16.71849 0.18455,-3.15681 0.2739,-3.16872 1.78743,-0.23824 14.67357,28.41073 57.4346,11.32141 49.32488,-19.71253 -8.22616,-31.479505 -56.31148,-20.378117 -51.81337,11.96207 0.32001,2.30078 0.0375,3.09295 -0.63745,1.78767 -2.87327,-5.55629 -11.5042,-5.35774 -14.17593,0.32612 -1.04588,2.22501 -1.3013,1.53252 -0.68759,-1.86415 5.81639,-32.191759 -43.37329,-43.761536 -51.71152,-12.16293 -8.24018,31.22709 34.81436,48.04996 49.41134,19.30668 1.46784,-2.89037 1.55218,-2.90289 1.57195,-0.23345 0.0553,7.46672 6.30603,19.18268 9.36187,17.54725 z"
         id="path696"
         sodipodi:nodetypes="csssscssssssssssssssssssssssssscssccsssssssssssscssssssssscssssss"
         clip-path="url(#clipPath820)" />
      <path
         style="display:inline;fill:#7a3d8f;stroke-width:0.264583"
         d="m 297.28365,270.0993 c -0.58209,-0.0575 -1.92154,-0.17526 -2.97656,-0.26176 -1.91823,-0.15729 -1.91823,-0.15729 -1.92283,-1.12691 -0.0699,-14.75346 -19.2747,-21.61191 -28.22907,-10.08123 -1.51327,1.94865 -1.03589,2.02885 -5.46441,-0.91805 -11.62587,-7.73631 -16.43084,-12.89013 -14.2629,-15.29837 7.45545,-8.28186 15.02175,-19.23335 19.94861,-28.87369 1.65497,-3.23826 1.75735,-3.31476 2.3521,-1.75765 5.09181,13.33082 17.56093,26.27807 32.62521,33.87622 3.83378,1.93368 3.44972,1.94019 7.47477,-0.12642 14.54387,-7.46726 26.33949,-19.40759 31.58963,-31.97714 1.00994,-2.41792 1.86024,-3.57888 1.86024,-2.53987 0,0.65815 6.02854,10.99126 9.09194,15.58387 3.51407,5.26826 7.8187,10.84816 11.89137,15.41421 1.83094,2.05277 1.83094,2.05277 0.86404,3.23273 -2.27738,2.77923 -9.12624,8.66833 -13.41893,11.53845 -6.03577,4.03556 -5.40023,3.8181 -6.56209,2.24536 -8.76829,-11.86921 -28.58925,-5.43584 -28.58925,9.27931 0,1.54932 0,1.54932 -0.99219,1.58665 -3.97683,0.14965 -14.41875,0.28924 -15.27968,0.20429 z m 5.03844,-91.11345 c -0.76238,-0.84241 -4.09745,-3.04654 -6.22907,-4.11674 -4.10752,-2.06224 -7.05541,-2.87667 -16.80104,-4.64175 -36.41695,-6.59565 -49.40632,-18.40384 -49.4623,-44.96447 -0.0298,-14.13328 7.00881,-31.902015 14.1513,-35.724561 0.84311,-0.451221 0.62085,-0.729634 -1.39145,-1.743012 -9.86024,-4.965541 -15.66971,-13.57799 -16.59496,-24.601799 -0.69285,-8.254801 1.54481,-9.633217 7.50423,-4.622665 7.48938,6.296914 16.27682,10.51116 30.58818,14.669376 3.27892,0.952701 6.76493,2.034526 7.74669,2.404059 1.78501,0.671881 1.78501,0.671881 3.16645,-0.02833 3.42424,-1.735643 10.20019,-3.882107 15.27207,-4.83784 13.61052,-2.564731 26.72561,-1.132446 38.74635,4.231452 2.90623,1.296813 2.90623,1.296813 6.48775,0.126486 1.96984,-0.643678 4.95074,-1.545645 6.62423,-2.004372 7.74176,-2.122112 13.14366,-4.147347 19.02429,-7.132411 5.04438,-2.560581 6.9368,-3.861789 13.80792,-9.494159 2.60629,-2.136418 5.26974,-0.184068 5.26623,3.86022 -0.0102,11.706378 -6.63021,22.411121 -16.99792,27.486022 -1.89756,0.928838 -1.9151,0.803508 0.46679,3.33547 15.437,16.409624 17.03737,45.821784 3.37563,62.038534 -0.83548,0.99173 -1.60702,1.84178 -1.71453,1.88898 -0.10751,0.0472 -0.64515,0.4914 -1.19475,0.98709 -7.14238,6.44173 -18.69363,10.98044 -35.6597,14.01137 -11.37147,2.03148 -14.66971,2.90149 -18.78542,4.95521 -2.22663,1.11108 -4.94554,2.92843 -5.79569,3.87391 -0.62568,0.69584 -1.00197,0.70617 -1.60128,0.0439 z m 1.46694,-27.40886 c 3.37578,-1.74568 8.14546,-12.43246 8.18773,-18.34511 0.009,-1.22211 0.009,-1.22211 1.19937,1.05629 14.79515,28.31216 57.4016,11.21659 49.30117,-19.78178 -8.39558,-32.127848 -58.22542,-19.331495 -51.67442,13.27004 0.14614,0.7273 0.0345,0.65623 -1.33339,-0.8489 -4.29938,-4.73066 -10.64516,-4.20049 -13.78158,1.15142 -0.93063,1.58798 -1.00791,1.38928 -0.52863,-1.35911 5.62806,-32.273668 -43.3603,-43.798555 -51.70784,-12.16467 -8.24291,31.23743 36.49281,48.36088 49.57548,18.97595 0.27535,-0.61846 0.60162,-1.12448 0.72504,-1.12448 0.12342,0 0.2253,0.50602 0.22639,1.12448 0.01,5.3667 3.62403,14.00363 7.26486,17.35964 1.33363,1.22929 1.44014,1.258 2.54582,0.68623 z"
         id="path694"
         sodipodi:nodetypes="sscsssssscsssssssssssssssssssssssssssssssssssssssccsssssssscss" />
    </g>
  </g>
</svg>
